<?xml version="1.0" encoding="UTF-8" standalone="no"?>
<svg
   height="32"
   viewBox="0 -960 1280 1280"
   width="32"
   version="1.1"
   id="svg4"
   sodipodi:docname="dead-marker.svg"
   inkscape:version="1.2.2 (b0a8486541, 2022-12-01)"
   xmlns:inkscape="http://www.inkscape.org/namespaces/inkscape"
   xmlns:sodipodi="http://sodipodi.sourceforge.net/DTD/sodipodi-0.dtd"
   xmlns="http://www.w3.org/2000/svg"
   xmlns:svg="http://www.w3.org/2000/svg">
  <defs
     id="defs8" />
  <sodipodi:namedview
     id="namedview6"
     pagecolor="#ffffff"
     bordercolor="#666666"
     borderopacity="1.0"
     inkscape:showpageshadow="2"
     inkscape:pageopacity="0"
     inkscape:pagecheckerboard="true"
     inkscape:deskcolor="#d1d1d1"
     showgrid="false"
     inkscape:zoom="16"
     inkscape:cx="8.75"
     inkscape:cy="12.59375"
     inkscape:window-width="1854"
     inkscape:window-height="1011"
     inkscape:window-x="0"
     inkscape:window-y="0"
     inkscape:window-maximized="1"
     inkscape:current-layer="svg4"
     shape-rendering="auto" />
  <circle
     style="fill:#464646;fill-opacity:0.49668869;stroke:#e7e7e7;stroke-width:80.12;stroke-linecap:square;stroke-dasharray:none;stroke-opacity:0.70280647;paint-order:normal"
     id="path309"
     cx="640.80292"
     cy="-319.19708"
     r="599.94977" />
  <path
     d="M 400,80 V -90 q -39,-17 -68.5,-45.5 -29.5,-28.5 -50,-64.5 -20.5,-36 -31,-77 -10.5,-41 -10.5,-83 0,-158 112,-259 112,-101 288,-101 176,0 288,101 112,101 112,259 0,42 -10.5,83 -10.5,41 -31,77 -20.5,36 -50,64.5 Q 919,-107 880,-90 V 80 Z M 480,0 h 40 v -80 h 80 V 0 h 80 v -80 h 80 V 0 h 40 v -142 q 38,-9 67.5,-30 29.5,-21 50,-50 20.5,-29 31.5,-64 11,-35 11,-74 0,-125 -88.5,-202.5 Q 783,-640 640,-640 497,-640 408.5,-562.5 320,-485 320,-360 q 0,39 11,74 11,35 31.5,64 20.5,29 50.5,50 30,21 67,30 z m 100,-200 h 120 l -60,-120 z m -80,-80 q 33,0 56.5,-23.5 Q 580,-327 580,-360 580,-393 556.5,-416.5 533,-440 500,-440 q -33,0 -56.5,23.5 -23.5,23.5 -23.5,56.5 0,33 23.5,56.5 23.5,23.5 56.5,23.5 z m 280,0 q 33,0 56.5,-23.5 Q 860,-327 860,-360 860,-393 836.5,-416.5 813,-440 780,-440 q -33,0 -56.5,23.5 -23.5,23.5 -23.5,56.5 0,33 23.5,56.5 Q 747,-280 780,-280 Z M 640,0 Z"
     id="path2"
     style="fill:#e7e7e7;fill-opacity:0.7032572;stroke:none" />
</svg>
