<?xml version="1.0" encoding="utf-8"?>
<!-- Uploaded to: SVG Repo, www.svgrepo.com, Generator: SVG Repo Mixer Tools --><!-- LICENSE: MIT License; AUTHOR: H2D2 Design -->
<svg
   width="800px"
   height="800px"
   viewBox="0 0 48 48"
   version="1.1"
   id="svg1304"
   sodipodi:docname="hide-svgrepo-com.svg"
   inkscape:version="1.1.2 (0a00cf5339, 2022-02-04)"
   xmlns:inkscape="http://www.inkscape.org/namespaces/inkscape"
   xmlns:sodipodi="http://sodipodi.sourceforge.net/DTD/sodipodi-0.dtd"
   xmlns="http://www.w3.org/2000/svg"
   xmlns:svg="http://www.w3.org/2000/svg">
  <defs
     id="defs1308" />
  <sodipodi:namedview
     id="namedview1306"
     pagecolor="#ffffff"
     bordercolor="#666666"
     borderopacity="1.0"
     inkscape:pageshadow="2"
     inkscape:pageopacity="0.0"
     inkscape:pagecheckerboard="true"
     showgrid="false"
     inkscape:zoom="1.055"
     inkscape:cx="400"
     inkscape:cy="400.47393"
     inkscape:window-width="1846"
     inkscape:window-height="1016"
     inkscape:window-x="74"
     inkscape:window-y="27"
     inkscape:window-maximized="1"
     inkscape:current-layer="svg1304" />
  <path
     d="M0 0h48v48H0z"
     fill="none"
     id="path1299" />
  <g
     id="Shopicon"
     style="fill:#ffffff">
    <path
       d="M11.957,33.214L7.171,38L10,40.828l5.305-5.305C17.867,36.992,20.788,38,24,38c12,0,20-14,20-14s-2.953-5.159-7.957-9.214   L40.829,10L38,7.172l-5.305,5.305C30.133,11.008,27.212,10,24,10C12,10,4,24,4,24S6.953,29.159,11.957,33.214z M16,24   c0-4.418,3.582-8,8-8c1.483,0,2.867,0.411,4.058,1.114l-3.035,3.035C24.694,20.062,24.356,20,24,20c-2.206,0-4,1.794-4,4   c0,0.356,0.062,0.694,0.149,1.023l-3.035,3.035C16.411,26.867,16,25.483,16,24z M32,24c0,4.418-3.582,8-8,8   c-1.483,0-2.867-0.411-4.058-1.114l3.035-3.035C23.306,27.938,23.644,28,24,28c2.206,0,4-1.794,4-4   c0-0.356-0.062-0.694-0.149-1.023l3.035-3.035C31.589,21.133,32,22.517,32,24z"
       id="path1301"
       style="fill:#ffffff" />
  </g>
</svg>
